#define alien_shoot_width 3
#define alien_shoot_height 7
static unsigned char alien_shoot_bits[] = {
   0x04, 0x02, 0x01, 0x02, 0x04, 0x02, 0x01 };
