#define craft_sinx10_width 13
#define craft_sinx10_height 8
static unsigned char craft_sinx10_bits[] = {
   0x40, 0x00, 0xe0, 0x00, 0xe0, 0x00, 0xfe, 0x0f, 0xff, 0x1f, 0xff, 0x1f,
   0xff, 0x1f, 0xff, 0x1f };
